<?xml version="1.0" encoding="UTF-8" standalone="no"?>
<svg
   xmlns:dc="http://purl.org/dc/elements/1.1/"
   xmlns:cc="http://creativecommons.org/ns#"
   xmlns:rdf="http://www.w3.org/1999/02/22-rdf-syntax-ns#"
   xmlns:svg="http://www.w3.org/2000/svg"
   xmlns="http://www.w3.org/2000/svg"
   xmlns:xlink="http://www.w3.org/1999/xlink"
   width="128"
   height="128"
   version="1.0"
   id="svg123">
  <metadata
     id="metadata127">
    <rdf:RDF>
      <cc:Work
         rdf:about="">
        <dc:format>image/svg+xml</dc:format>
        <dc:type
           rdf:resource="http://purl.org/dc/dcmitype/StillImage" />
        <dc:title></dc:title>
      </cc:Work>
    </rdf:RDF>
  </metadata>
  <defs
     id="defs69">
    <linearGradient
       id="e">
      <stop
         offset="0"
         stop-color="#deddda"
         id="stop2" />
      <stop
         offset="1"
         stop-color="#77767b"
         id="stop4" />
    </linearGradient>
    <linearGradient
       id="f">
      <stop
         offset="0"
         stop-color="#deddda"
         id="stop7" />
      <stop
         offset="1"
         stop-color="#77767b"
         id="stop9" />
    </linearGradient>
    <linearGradient
       id="g">
      <stop
         offset="0"
         stop-color="#9a9996"
         id="stop12" />
      <stop
         offset="1"
         stop-color="#77767b"
         id="stop14" />
    </linearGradient>
    <linearGradient
       id="h">
      <stop
         offset="0"
         stop-color="#3d3846"
         id="stop17" />
      <stop
         offset=".045"
         stop-color="#5e5c64"
         id="stop19" />
      <stop
         offset=".091"
         stop-color="#3d3846"
         id="stop21" />
      <stop
         offset=".909"
         stop-color="#3d3846"
         id="stop23" />
      <stop
         offset=".955"
         stop-color="#5e5c64"
         id="stop25" />
      <stop
         offset="1"
         stop-color="#3d3846"
         id="stop27" />
    </linearGradient>
    <linearGradient
       id="a">
      <stop
         offset="0"
         stop-color="#d5d3cf"
         id="stop30" />
      <stop
         offset="1"
         stop-color="#f6f5f4"
         id="stop32" />
    </linearGradient>
    <linearGradient
       id="b">
      <stop
         offset="0"
         stop-color="#d5d3cf"
         id="stop35" />
      <stop
         offset="1"
         stop-color="#949390"
         id="stop37" />
    </linearGradient>
    <linearGradient
       id="c">
      <stop
         offset="0"
         stop-color="#9a9996"
         id="stop40" />
      <stop
         offset="1"
         stop-color="#77767b"
         id="stop42" />
    </linearGradient>
    <linearGradient
       id="i">
      <stop
         offset="0"
         stop-color="#deddda"
         id="stop45"
         style="stop-color:#7db27d;stop-opacity:1" />
      <stop
         offset="1"
         stop-color="#c0bfbc"
         id="stop47"
         style="stop-color:#009900;stop-opacity:1" />
    </linearGradient>
    <linearGradient
       id="d">
      <stop
         offset="0"
         stop-color="#c0bfbc"
         id="stop50" />
      <stop
         offset=".351"
         stop-color="#fff"
         id="stop52" />
      <stop
         offset=".602"
         stop-color="#9a9996"
         id="stop54" />
      <stop
         offset="1"
         stop-color="#77767b"
         id="stop56" />
    </linearGradient>
    <linearGradient
       xlink:href="#d"
       id="o"
       gradientUnits="userSpaceOnUse"
       gradientTransform="matrix(0.75,0,0,0.7,-21,-101)"
       x1="60"
       y1="199.856"
       x2="68"
       y2="199.856" />
    <radialGradient
       xlink:href="#e"
       id="m"
       gradientUnits="userSpaceOnUse"
       gradientTransform="matrix(0.75,0,0,0.75,129.75,16)"
       cx="-223"
       cy="64"
       fx="-223"
       fy="64"
       r="24" />
    <linearGradient
       xlink:href="#d"
       id="n"
       gradientUnits="userSpaceOnUse"
       gradientTransform="matrix(0.75,0,0,0.7,-21,-59)"
       x1="60"
       y1="199.856"
       x2="68"
       y2="199.856" />
    <radialGradient
       xlink:href="#f"
       id="l"
       gradientUnits="userSpaceOnUse"
       gradientTransform="matrix(0.77778,0,0,0.77778,136.694,14.222)"
       cx="-223"
       cy="64"
       fx="-223"
       fy="64"
       r="24" />
    <linearGradient
       xlink:href="#g"
       id="k"
       gradientUnits="userSpaceOnUse"
       gradientTransform="matrix(0.8372,0,0,1.22857,-117.581,-221.114)"
       x1="83.111"
       y1="199.512"
       x2="102.222"
       y2="289.047" />
    <linearGradient
       xlink:href="#h"
       id="j"
       gradientUnits="userSpaceOnUse"
       gradientTransform="matrix(0.21154,0,0,0.25,9.846,57)"
       x1="48"
       y1="204"
       x2="464"
       y2="204" />
    <radialGradient
       xlink:href="#i"
       id="p"
       gradientUnits="userSpaceOnUse"
       gradientTransform="matrix(0.47222,0,0,0.47222,67.444,-33.778)"
       cx="-236"
       cy="-64"
       fx="-236"
       fy="-64"
       r="12" />
    <linearGradient
       xlink:href="#d"
       id="r"
       gradientUnits="userSpaceOnUse"
       gradientTransform="matrix(-0.8660254,0.5,0.5,0.8660254,-21.742824,8.8146773)"
       x1="50.981"
       y1="248.218"
       x2="50.981"
       y2="252.218" />
    <linearGradient
       xlink:href="#d"
       id="q"
       gradientUnits="userSpaceOnUse"
       gradientTransform="rotate(30,58.423,283.831)"
       x1="50.981"
       y1="248.218"
       x2="50.981"
       y2="252.218" />
    <linearGradient
       xlink:href="#d"
       id="s"
       gradientUnits="userSpaceOnUse"
       gradientTransform="matrix(0,1,1,0,-186.218,202.02)"
       x1="50.981"
       y1="248.218"
       x2="50.981"
       y2="252.218" />
  </defs>
  <rect
     style="fill:url(#j);marker:none"
     width="88"
     height="84"
     x="20"
     y="36"
     rx="8"
     ry="8"
     fill="url(#j)"
     id="rect71" />
  <rect
     ry="8"
     rx="8"
     y="8"
     x="20"
     height="104"
     width="88"
     style="marker:none"
     fill="#5e5c64"
     id="rect73" />
  <g
     transform="translate(0,-168)"
     id="g79">
    <rect
       style="marker:none"
       width="72"
       height="80"
       x="28"
       y="194"
       rx="3"
       ry="3"
       fill="#3d3846"
       id="rect75" />
    <path
       fill="#5e5c64"
       d="m 24,244 h 6 v 14 h -6 z"
       id="path77" />
  </g>
  <rect
     style="fill:url(#k);marker:none"
     width="72"
     height="88"
     x="-100"
     y="16"
     rx="3"
     ry="3"
     transform="scale(-1,1)"
     fill="url(#k)"
     id="rect81" />
  <g
     opacity="0.2"
     fill="none"
     stroke="#000000"
     stroke-width="4"
     stroke-linecap="round"
     id="g85"
     transform="translate(0,-172)">
    <path
       d="M 63.588,250 48,241 M 64.412,250 80,241 m -16,25 v -17"
       id="path83" />
  </g>
  <circle
     r="6"
     cy="-64"
     cx="-76"
     transform="matrix(0,-1,-1,0,0,0)"
     fill="#3d3846"
     id="circle87" />
  <circle
     cx="-44"
     cy="64"
     r="14"
     transform="rotate(-90)"
     fill="#5e5c64"
     id="circle89" />
  <circle
     transform="rotate(-90)"
     r="14"
     cy="64"
     cx="-42"
     fill="url(#l)"
     id="circle91"
     style="fill:url(#l)" />
  <g
     stroke-width="2.857"
     fill="none"
     stroke="#000000"
     opacity="0.222"
     id="g95"
     transform="translate(0,-172)">
    <path
       d="M 64,223.333 V 228 m 0,-28 v 28 m -7,-26.124 14,24.248 M 51.876,207 76.124,221 M 50,214 h 28 m -26.124,7 24.248,-14 M 57,226.124 71,201.876"
       stroke-width="1.9999"
       id="path93" />
  </g>
  <circle
     cx="-42"
     cy="64"
     r="9"
     transform="rotate(-90)"
     fill="url(#m)"
     id="circle97"
     style="fill:url(#m)" />
  <circle
     transform="matrix(0,-1,-1,0,0,0)"
     cx="-42"
     cy="-64"
     r="6"
     fill="#3d3846"
     id="circle99" />
  <path
     d="m 27,73 a 3,1 0 0 0 -3,1 v 14 h 6 V 74 a 3,1 0 0 0 -3,-1 z"
     fill="url(#n)"
     id="path101"
     style="fill:url(#n)" />
  <path
     style="marker:none"
     d="m 27,87 a 3,1 0 0 0 -3,1 3,1 0 0 0 3,1 3,1 0 0 0 1,-0.059 V 88 h 2 a 3,1 0 0 0 -3,-1 z m 0,-8 c -1.657,0 -3,0.448 -3,1 v 2 c 0,-0.552 1.343,-1 3,-1 1.657,0 3,0.448 3,1 v -2 c 0,-0.552 -1.343,-1 -3,-1 z m 1.197,2.916 -0.056,0.008 z"
     fill="#3d3846"
     id="path103" />
  <path
     d="m 27,31 a 3,1 0 0 0 -3,1 v 14 h 6 V 32 a 3,1 0 0 0 -3,-1 z"
     fill="url(#o)"
     id="path105"
     style="fill:url(#o)" />
  <path
     d="m 27,45 a 3,1 0 0 0 -3,1 3,1 0 0 0 3,1 3,1 0 0 0 1,-0.059 V 46 h 2 a 3,1 0 0 0 -3,-1 z m 0,-8 c -1.657,0 -3,0.448 -3,1 v 2 c 0,-0.552 1.343,-1 3,-1 1.657,0 3,0.448 3,1 v -2 c 0,-0.552 -1.343,-1 -3,-1 z m 1.197,2.916 -0.056,0.008 z"
     style="marker:none"
     fill="#3d3846"
     id="path107" />
  <circle
     r="4"
     cy="-64"
     cx="-42"
     transform="matrix(0,-1,-1,0,0,0)"
     fill="url(#p)"
     id="circle109"
     style="fill:url(#p);fill-opacity:1.0" />
  <g
     fill="none"
     stroke-width="4"
     stroke-linecap="round"
     id="g117"
     transform="translate(0,-172)">
    <path
       d="M 63.588,248 48,239"
       stroke="url(#q)"
       id="path111"
       style="stroke:url(#q)" />
    <path
       d="M 64.412,248 80,239"
       stroke="url(#r)"
       id="path113"
       style="stroke:url(#r)" />
    <path
       d="M 64,264 V 247"
       stroke="url(#s)"
       id="path115"
       style="stroke:url(#s)" />
  </g>
  <circle
     transform="matrix(0,-1,-1,0,0,0)"
     cx="-76"
     cy="-64"
     r="4"
     fill="#f6f5f4"
     id="circle119" />
</svg>
